<svg id="LightFullLogo" xmlns="http://www.w3.org/2000/svg" viewBox="0 0 741.44 121.6"><defs><style>.cls-1{fill:#a0a0a0;}.cls-2{fill:#515151;}.cls-3{fill:#7a7a7a;}.cls-4{fill:#c1c1c1;}</style></defs><title>Zeichenfläche 1</title><g id="PIXELSHERE"><path class="cls-1" d="M245.36,38h14.88A20.16,20.16,0,0,1,269,39.8,13.9,13.9,0,0,1,274.91,45,14.48,14.48,0,0,1,277,52.88a14,14,0,0,1-4.59,11Q267.86,68,260.18,68h-5.94V83.6h-8.88Zm8.88,22.62H259q4.5,0,6.87-2a7,7,0,0,0,2.37-5.7,6.87,6.87,0,0,0-2.34-5.64q-2.34-1.92-6.9-1.92h-4.74Z"/><path class="cls-1" d="M296.66,38h9.18V83.6h-9.18Z"/><path class="cls-1" d="M340.76,59.9,325.58,38h10.68l10.26,15.66,10-15.66H367L351.62,60,368,83.6H357.14L345.86,66.26,334.7,83.6H324.2Z"/><path class="cls-1" d="M386.36,38h30.12v7.68H395.24V56.6H414v7.62H395.24v11.7h22.08V83.6h-31Z"/><path class="cls-1" d="M438.68,38h9.18V76H468.5V83.6H438.68Z"/><path class="cls-1" d="M501.32,84.56a36.22,36.22,0,0,1-8.58-1A20.83,20.83,0,0,1,486,80.78l.9-7.86a24.57,24.57,0,0,0,6.72,2.94A27.24,27.24,0,0,0,501,76.94a11.3,11.3,0,0,0,6.39-1.53,4.9,4.9,0,0,0,2.25-4.29,4.53,4.53,0,0,0-1.89-3.78,26,26,0,0,0-7.17-3.12q-7.44-2.34-10.62-5.58a11.72,11.72,0,0,1-3.18-8.58,12,12,0,0,1,1.95-6.78,12.82,12.82,0,0,1,5.67-4.59,21.3,21.3,0,0,1,8.7-1.65,30.08,30.08,0,0,1,7.2.9,25.26,25.26,0,0,1,6.42,2.46L515.42,48a25.43,25.43,0,0,0-5.85-2.43,22.72,22.72,0,0,0-6.21-.93A10,10,0,0,0,497.57,46a4.56,4.56,0,0,0-1.95,4,4.48,4.48,0,0,0,.75,2.67,6.43,6.43,0,0,0,2.46,1.89,37.94,37.94,0,0,0,4.89,1.86q8.16,2.58,11.58,5.91A11.56,11.56,0,0,1,518.72,71a11.91,11.91,0,0,1-4.65,9.93Q509.42,84.56,501.32,84.56Z"/><path class="cls-2" d="M539.78,38H549V56.3h21.9V38H580V83.6h-9.18V63.86H549V83.6h-9.18Z"/><path class="cls-2" d="M603,38h30.12v7.68H611.84V56.6h18.78v7.62H611.84v11.7h22.08V83.6H603Z"/><path class="cls-2" d="M655.28,38H670.1q7.86,0,12.36,3.87T687,52.52a13.49,13.49,0,0,1-2,7.23,14.63,14.63,0,0,1-5.64,5.19L691.52,83.6H681.2l-9.78-16.38-1.71.09-1.29,0H664V83.6h-8.76ZM664,60h4.5Q678,60,678,52.58a6.44,6.44,0,0,0-2.31-5.37q-2.31-1.83-6.81-1.83H664Z"/><path class="cls-2" d="M710.48,38H740.6v7.68H719.36V56.6h18.78v7.62H719.36v11.7h22.08V83.6h-31Z"/></g><g id="H"><polygon class="cls-2" points="170.88 0 170.88 48.8 112.48 48.8 112.48 0 88 0 88 93.35 112.48 93.35 112.48 68.96 170.88 68.96 170.88 121.6 195.36 121.6 195.36 0 170.88 0"/></g><g id="Pixels"><rect class="cls-3" x="55.52" y="97.12" width="24.48" height="24.48"/><rect class="cls-1" x="33.2" y="76.94" width="16.32" height="16.32"/><rect class="cls-4" y="82.38" width="10.88" height="10.88"/><rect class="cls-1" x="12.88" y="97.12" width="16.32" height="16.32"/></g></svg>